<svg width="144" height="144" viewBox="0 0 144 144" fill="none" xmlns="http://www.w3.org/2000/svg">
<rect width="144" height="144" rx="23" fill="#F0FB98"/>
<path d="M96.44 90.5989C96.44 80.7109 89.5554 73.8834 81.7529 68.1154L75.901 63.76C69.9343 59.2868 66.7215 55.9908 66.7215 51.0468C66.7215 45.3965 71.5407 42.1005 77.5074 42.1005C83.0151 42.1005 87.4901 44.2194 90.8176 50.1051L102.521 42.9245C96.6695 32.6834 87.6048 29.2696 78.0811 29.2696C64.3119 29.2696 53.1818 37.6274 53.1818 51.5177C53.1818 61.0526 58.5748 67.7623 67.41 74.2366L73.2619 78.592C79.6875 83.0652 82.5561 86.4789 82.5561 91.776C82.5561 97.6618 77.3926 101.899 69.7049 101.899C61.4433 101.899 56.2799 97.0732 53.4113 90.128L41.478 97.4263C46.0678 107.432 55.7062 114.73 68.9017 114.73C85.9984 114.73 96.44 104.136 96.44 90.5989Z" fill="black"/>
</svg>
